<svg xmlns="http://www.w3.org/2000/svg" viewBox="0 0 626.38 253.73"><defs><style>.cls-1{fill:#231f20;}</style></defs><g id="Layer_2" data-name="Layer 2"><g id="Layer_1-2" data-name="Layer 1"><path class="cls-1" d="M549.68,126.72c.92,26.09-22.49,49.93-50.48,49.2-24.33-.63-48.39-20.1-48.39-49.52,0-30.91,25.57-49.94,50.19-49.74C526.37,76.87,550.57,98.5,549.68,126.72Z"/><path class="cls-1" d="M606,26.28v4.45h-1.31V20h2.79c.47,0,.87,0,1.2.05a5.54,5.54,0,0,1,.9.17,3.21,3.21,0,0,1,1.72,1,2.85,2.85,0,0,1,.59,1.83,3.09,3.09,0,0,1-.21,1.17,2.69,2.69,0,0,1-.58.89,3.25,3.25,0,0,1-.91.62,5,5,0,0,1-1.17.35v0l3.18,4.6h-1.31l-3.3-4.45Zm0-5.12V25.1h1.3c.4,0,.74,0,1,0a4,4,0,0,0,.77-.15,2.1,2.1,0,0,0,1-.67,1.8,1.8,0,0,0,.37-1.19,1.75,1.75,0,0,0-.35-1.11,1.84,1.84,0,0,0-1-.61,3.7,3.7,0,0,0-.69-.13,9.7,9.7,0,0,0-1,0Z"/><path class="cls-1" d="M608,36.06a10.68,10.68,0,1,1,10.68-10.67A10.69,10.69,0,0,1,608,36.06Zm0-19.35a8.68,8.68,0,1,0,8.68,8.68A8.68,8.68,0,0,0,608,16.71Z"/><path class="cls-1" d="M122.38,14.34C82.74-1.71,41.62,5.56,0,3.87V252.58c41.62-1.64,82.74,5.4,122.38-10.13,46.74-18.31,74.87-61.48,73.4-112.21C197.25,77.84,169.12,33.25,122.38,14.34Zm5.05,121.74c-2.52,36.89-26.62,59.52-59.77,55.43V67c33.15-4.22,57.25,19.15,59.77,57.25.14,2.05.18,4,.16,6S127.57,134.11,127.43,136.08Z"/><path class="cls-1" d="M626.34,123.27c-.09-3.31-.67-6.6-.81-9.91-.35-8.69-2.45-17-5-25.29a123.21,123.21,0,0,0-18.13-36.35A125,125,0,0,0,568.93,20,123,123,0,0,0,534,4.51,121.69,121.69,0,0,0,504.63,0C499-.11,493.36.54,487.72.73c-8.87.29-17.41,2.31-25.79,5a123.58,123.58,0,0,0-35.39,18,129.24,129.24,0,0,0-34,36.8c-2,3.22-3.71,6.61-5.73,10.23-.69-4.27-1-8.1-1.95-11.75C380,40.14,369.14,25.48,353.13,14.63,343.44,8.07,332.73,4.06,321,4,283.62,3.87,246.29,4,209,4a31.09,31.09,0,0,0-3.25.33c-.85,15.17-.44,243.89.47,248.31h2.39q51.75,0,103.5,0a70.42,70.42,0,0,0,12.39-1.05c20.22-3.67,36.51-13.9,48.67-30.4A66.54,66.54,0,0,0,386.65,184c.61.28.84.31.9.43,1,1.73,1.86,3.51,2.88,5.21,12.93,21.6,30,38.8,52.54,50.49,17.14,8.9,35.39,13,54.56,13.6a126.33,126.33,0,0,0,22.8-1.78c17.72-2.68,33.8-9.38,48.71-19.14a124.74,124.74,0,0,0,26.42-23.34A127.6,127.6,0,0,0,617.85,172,125.53,125.53,0,0,0,626.34,123.27ZM319.51,90.18c-3.59,7.46-9.38,11.42-17.69,11.47-9.81.06-19.62,0-29.44,0l-.29,0h-2.8V58.94h2.59a11.9,11.9,0,0,1,2,0h25l.92,0C319.78,58,325.15,78.49,319.51,90.18Zm0,93.62c-3.59,7.46-9.38,11.42-17.69,11.47-9.81.06-19.62,0-29.44,0h-3.09V152.56h2.59a10.91,10.91,0,0,1,2,0h25l.92,0C319.78,151.63,325.15,172.1,319.51,183.8Zm54.7-40.23c-3.26-3.06-6.55-6.68-10.37-9.59s-8.34-5.27-12.72-8a56,56,0,0,0,23.12-15.37c-.25,6.28-.65,11.71-.64,17.13S374,138.61,374.21,143.57Zm126.07,46.15c-36.65-.07-63.94-30.86-63-63.64-.57-33.06,26.59-63.31,63.4-63.18,36,.13,63.57,30.3,63,64.35S535.09,189.79,500.28,189.72Z"/></g></g></svg>