{
    "asset" : {
        "generator" : "Khronos glTF Blender I/O v1.7.33",
        "version" : "2.0"
    },
    "scene" : 0,
    "scenes" : [
        {
            "name" : "Scene",
            "nodes" : [
                0
            ]
        }
    ],
    "nodes" : [
        {
            "mesh" : 0,
            "name" : "Cube",
            "scale" : [
                2,
                2,
                2
            ]
        }
    ],
    "materials" : [
        {
            "doubleSided" : true,
            "name" : "Material",
            "pbrMetallicRoughness" : {
                "baseColorTexture" : {
                    "index" : 0
                },
                "metallicFactor" : 0,
                "metallicRoughnessTexture" : {
                    "index" : 1
                }
            }
        }
    ],
    "meshes" : [
        {
            "name" : "Cube",
            "primitives" : [
                {
                    "attributes" : {
                        "POSITION" : 0,
                        "NORMAL" : 1,
                        "TEXCOORD_0" : 2
                    },
                    "indices" : 3,
                    "material" : 0
                }
            ]
        }
    ],
    "textures" : [
        {
            "sampler" : 0,
            "source" : 0
        },
        {
            "sampler" : 0,
            "source" : 1
        }
    ],
    "images" : [
        {
            "bufferView" : 4,
            "mimeType" : "image/jpeg",
            "name" : "all2"
        },
        {
            "bufferView" : 5,
            "mimeType" : "image/png",
            "name" : "reflection"
        }
    ],
    "accessors" : [
        {
            "bufferView" : 0,
            "componentType" : 5126,
            "count" : 5132,
            "max" : [
                2.6709413528442383,
                2.520585060119629,
                2.686289072036743
            ],
            "min" : [
                -2.2982308864593506,
                -2.8547897338867188,
                -2.527670383453369
            ],
            "type" : "VEC3"
        },
        {
            "bufferView" : 1,
            "componentType" : 5126,
            "count" : 5132,
            "type" : "VEC3"
        },
        {
            "bufferView" : 2,
            "componentType" : 5126,
            "count" : 5132,
            "type" : "VEC2"
        },
        {
            "bufferView" : 3,
            "componentType" : 5123,
            "count" : 10218,
            "type" : "SCALAR"
        }
    ],
    "bufferViews" : [
        {
            "buffer" : 0,
            "byteLength" : 61584,
            "byteOffset" : 0
        },
        {
            "buffer" : 0,
            "byteLength" : 61584,
            "byteOffset" : 61584
        },
        {
            "buffer" : 0,
            "byteLength" : 41056,
            "byteOffset" : 123168
        },
        {
            "buffer" : 0,
            "byteLength" : 20436,
            "byteOffset" : 164224
        },
        {
            "buffer" : 0,
            "byteLength" : 570344,
            "byteOffset" : 184660
        },
        {
            "buffer" : 0,
            "byteLength" : 1533712,
            "byteOffset" : 755004
        }
    ],
    "samplers" : [
        {
            "magFilter" : 9729,
            "minFilter" : 9987
        }
    ],
    "buffers" : [
        {
            "byteLength" : 2288716,
            "uri" : "data:application/octet-stream;base64,"
        }
    ]
}
